<?xml version="1.0" encoding="utf-8"?>
<!-- Generator: Adobe Illustrator 26.0.0, SVG Export Plug-In . SVG Version: 6.00 Build 0)  -->
<svg version="1.1" id="Layer_1" xmlns="http://www.w3.org/2000/svg" xmlns:xlink="http://www.w3.org/1999/xlink" x="0px" y="0px"
	 width="262px" height="72.9px" viewBox="0 0 262 72.9" style="enable-background:new 0 0 262 72.9;" xml:space="preserve">
<style type="text/css">
	.st0{fill:#1DA1F2;}
	.st1{fill:#404041;}
</style>
<g>
	<g>
		<g>
			<path class="st0" d="M252.5,3.2c-2.9,0-5.3,2-6,4.7c4.4,4,7.7,9.3,9.4,15.2c-5-11.6-16.7-19.9-30.3-19.9c-18.2,0-33,14.8-33,33
				c0,18.2,14.7,33,33,33c5.9,0,11.4-1.6,16.2-4.3V49.1c-3.8,4.8-9.7,7.8-16.2,7.8c-11.5,0-20.7-9.3-20.7-20.7
				c0-11.4,9.3-20.7,20.7-20.7c11.4,0,20.7,9.3,20.7,20.7c0,11.1,0,17.3,0,26.9c0,3.4,2.8,6.1,6.1,6.1c3.4,0,6.1-2.8,6.1-6.1V9.3
				C258.6,5.9,255.9,3.2,252.5,3.2z"/>
			<path class="st0" d="M237.2,34.2l-15.7-9c-1.5-0.9-3.4,0.2-3.4,1.9v18.1c0,0.6,0.2,1.2,0.6,1.5l4.8-8.2c0.2-0.4,0.2-0.8,0-1.2
				c-0.5-0.9-0.4-2,0.4-2.8c0.6-0.6,1.5-0.9,2.4-0.6c1.5,0.5,2.2,2.2,1.4,3.5c-0.5,0.8-1.3,1.2-2.1,1.2c-0.4,0-0.8,0.3-1.1,0.6
				l-4.7,8.2c0.5,0.1,1.1,0.1,1.7-0.2l15.7-9C238.7,37.2,238.7,35.1,237.2,34.2z"/>
		</g>
		<g>
			<g>
				<path class="st1" d="M14.4,61.6H7.8l-1,2.7H5.3L10,51.4h2l4.8,12.9h-1.5L14.4,61.6z M13.9,60.5l-2.9-7.9l-2.8,7.9H13.9z"/>
				<path class="st1" d="M33.2,51.4v9.1c0,1.5-0.3,2.6-0.8,3.1c-0.6,0.6-1.6,0.8-3.1,0.8c-1.5,0-2.6-0.2-3.2-0.7
					c-0.6-0.5-0.9-1.3-0.9-2.6c0-0.6,0-1.1,0-1.5h1.4v0.2v1c0,1.1,0.1,1.7,0.4,2c0.3,0.3,1,0.4,2.1,0.4c1.1,0,1.8-0.2,2.1-0.5
					c0.3-0.3,0.4-1.2,0.4-2.4v-8.9H33.2z"/>
				<path class="st1" d="M61.5,51.4l-4.1,12.9h-2.2L52.5,55l-0.3-1.2c0-0.1-0.1-0.3-0.2-0.6l-0.2-0.6h0l-0.2,0.6l-0.2,0.6L51.1,55
					l-2.8,9.3h-2.2l-4-12.9h1.5l2.8,9.3l0.4,1.3c0,0.1,0.1,0.3,0.2,0.6l0.2,0.6h0l0.2-0.6l0.2-0.6l0.4-1.2l2.7-9.3h2.2l2.7,9.3
					l0.4,1.2l0.2,0.6l0.2,0.6h0l0.2-0.6l0.2-0.6l0.4-1.3l2.8-9.3H61.5z"/>
				<path class="st1" d="M78.4,61.6h-6.5l-1,2.7h-1.5l4.7-12.9h2l4.8,12.9h-1.5L78.4,61.6z M78,60.5l-2.9-7.9l-2.8,7.9H78z"/>
				<path class="st1" d="M108.5,51.4v12.9H107V54v-0.8l0-0.4l0-0.4h0l-0.1,0.3c-0.1,0.2-0.1,0.2-0.1,0.3l-0.2,0.6l-4.4,10.7h-1.5
					l-4.4-10.5L96,53.2l-0.1-0.3c0-0.1-0.1-0.2-0.1-0.3h0l0,0.3l0,0.4V54v10.3h-1.5V51.4h2.5l3.4,8.3l0.5,1.4l0.3,0.7l0.3,0.7h0
					l0.3-0.7c0.1-0.3,0.2-0.5,0.3-0.7l0.6-1.3l3.4-8.4H108.5z"/>
				<path class="st1" d="M119.6,52.6V57h6.5v1.2h-6.5v4.8h6.8v1.2h-8.3V51.4h8.3v1.2H119.6z"/>
				<path class="st1" d="M136,64.3V51.4h6c1.8,0,3.1,0.4,3.8,1.2c0.7,0.8,1,2.4,1,4.7c0,2.8-0.3,4.7-0.9,5.6
					c-0.6,0.9-1.7,1.4-3.5,1.4H136z M137.5,63.1h4.2c1.5,0,2.5-0.3,3-0.9c0.4-0.6,0.7-2,0.7-4.1c0-2.3-0.2-3.8-0.6-4.5
					c-0.4-0.6-1.3-0.9-2.8-0.9h-4.5V63.1z"/>
				<path class="st1" d="M157.9,51.4v12.9h-1.5V51.4H157.9z"/>
				<path class="st1" d="M176,61.6h-6.5l-1,2.7H167l4.7-12.9h2l4.8,12.9H177L176,61.6z M175.6,60.5l-2.9-7.9l-2.8,7.9H175.6z"/>
			</g>
			<g>
				<path class="st0" d="M178.5,44.3H5.3c-0.2,0-0.4-0.2-0.4-0.4s0.2-0.4,0.4-0.4h173.2c0.2,0,0.4,0.2,0.4,0.4
					S178.8,44.3,178.5,44.3z"/>
			</g>
			<g>
				<path class="st1" d="M17.7,35.4c-0.4,0-0.8,0.2-1.1,0.5c-0.3,0.3-0.5,0.7-0.5,1.1c0,0.4,0.2,0.8,0.5,1.1
					c0.3,0.3,0.7,0.5,1.1,0.5c0.4,0,0.8-0.2,1.1-0.5c0.3-0.3,0.5-0.7,0.5-1.1c0-0.4-0.2-0.8-0.5-1.1C18.5,35.6,18.1,35.4,17.7,35.4z
					"/>
				<path class="st1" d="M12.4,35.4c-0.4,0-0.8,0.2-1.1,0.5c-0.3,0.3-0.5,0.7-0.5,1.1c0,0.4,0.2,0.8,0.5,1.1
					c0.3,0.3,0.7,0.5,1.1,0.5c0.4,0,0.8-0.2,1.1-0.5c0.3-0.3,0.5-0.7,0.5-1.1c0-0.4-0.2-0.8-0.5-1.1C13.2,35.6,12.8,35.4,12.4,35.4z
					"/>
				<polygon class="st1" points="19,32.5 19,16.1 16.9,16.1 16.9,30.4 7,30.4 7,7.8 4.9,7.8 4.9,32.5 				"/>
				<path class="st1" d="M61.4,35.4c-0.4,0-0.8,0.2-1.1,0.5c-0.3,0.3-0.5,0.7-0.5,1.1c0,0.4,0.2,0.8,0.5,1.1
					c0.3,0.3,0.7,0.5,1.1,0.5c0.4,0,0.8-0.2,1.1-0.5c0.3-0.3,0.5-0.7,0.5-1.1c0-0.4-0.2-0.8-0.5-1.1C62.2,35.6,61.8,35.4,61.4,35.4z
					"/>
				<path class="st1" d="M66.7,35.4c-0.4,0-0.8,0.2-1.1,0.5c-0.3,0.3-0.5,0.7-0.5,1.1c0,0.4,0.2,0.8,0.5,1.1
					c0.3,0.3,0.7,0.5,1.1,0.5c0.4,0,0.8-0.2,1.1-0.5c0.3-0.3,0.5-0.7,0.5-1.1c0-0.4-0.2-0.8-0.5-1.1C67.5,35.6,67.1,35.4,66.7,35.4z
					"/>
				<path class="st1" d="M106.1,23.2c0-1.6,0.4-2.8,1.1-3.7c0.7-0.9,1.6-1.3,2.8-1.3h3.5v-2.1h-3.1c-2,0-3.6,0.7-4.7,2
					c-1.1,1.3-1.6,3.2-1.6,5.6v6.7h0v2.1h10.8v-2.1h-8.7V23.2z"/>
				<path class="st1" d="M165.4,16.1h-6.6v2.1h7c1.1,0,2,0.5,2.7,1.3c0.7,0.9,1.1,2.1,1.1,3.7v7.2h-29.9V16.1h-3.5
					c-1.6,0-3,0.2-4.2,0.6c-1.2,0.4-2.3,1-3.2,1.7c-0.9,0.7-1.6,1.6-2,2.6c-0.5,1-0.7,2.1-0.7,3.3c0,1.5,0.3,2.8,0.9,3.8
					c0.6,1.1,1.3,1.9,2.3,2.6c1,0.7,2,1.1,3.2,1.4c1.2,0.3,2.4,0.4,3.7,0.4h1.4v1c0,1.1-0.4,1.9-1.1,2.5c-0.7,0.6-1.7,0.9-3,0.9
					c-0.7,0-1.4-0.1-2-0.4c-0.6-0.2-1.4-0.6-2.3-1.1l-1,1.9c1,0.6,1.9,1,2.6,1.3c0.8,0.3,1.6,0.4,2.6,0.4c1.9,0,3.4-0.5,4.6-1.5
					c1.2-1,1.7-2.3,1.7-4v-1h32v-1v-1v-6.7c0-2.4-0.5-4.3-1.6-5.6C169,16.7,167.4,16.1,165.4,16.1z M137.6,30.4h-2.2
					c-1,0-1.9-0.1-2.8-0.4c-0.9-0.3-1.6-0.7-2.3-1.2c-0.7-0.5-1.2-1.1-1.6-1.9c-0.4-0.8-0.6-1.7-0.6-2.7c0-0.9,0.2-1.8,0.6-2.5
					c0.4-0.7,1-1.4,1.6-1.9c0.7-0.5,1.5-0.9,2.3-1.2c0.9-0.3,1.7-0.4,2.6-0.4h2.2V30.4z"/>
				<rect x="120" y="7.8" class="st1" width="2.1" height="24.7"/>
				<path class="st1" d="M163.8,35.4c-0.4,0-0.8,0.2-1.1,0.5c-0.3,0.3-0.5,0.7-0.5,1.1c0,0.4,0.2,0.8,0.5,1.1
					c0.3,0.3,0.7,0.5,1.1,0.5c0.4,0,0.8-0.2,1.1-0.5c0.3-0.3,0.5-0.7,0.5-1.1c0-0.4-0.2-0.8-0.5-1.1
					C164.7,35.6,164.3,35.4,163.8,35.4z"/>
				<path class="st1" d="M178.5,5v2.1h-0.3c-0.6,0-1.1,0.1-1.3,0.3c-0.2,0.2-0.3,0.5-0.3,0.7h1.9v2.1h-4V8.9c0-1.2,0.3-2.2,0.9-2.9
					c0.6-0.7,1.5-1,2.6-1H178.5z"/>
				<rect x="176.4" y="11.3" class="st1" width="2.1" height="21.2"/>
				<path class="st1" d="M82,16.1c-5.2,0-9.5,4.2-9.5,9.5c0,1.8,0.5,3.4,1.4,4.9h-8.5V16.1h-2.1v14.3H35.4v-8.1
					c0-0.7-0.1-1.5-0.3-2.2c-0.2-0.7-0.6-1.4-1.1-2c-0.6-0.7-1.3-1.2-2-1.5c-0.7-0.3-1.6-0.5-2.6-0.5H27v2.1h2.5
					c0.5,0,1,0.1,1.6,0.4c0.5,0.2,0.9,0.6,1.3,1c0.3,0.4,0.5,0.9,0.7,1.3c0.1,0.5,0.2,1.1,0.2,1.8v7.8H21.8v2.1h53.8
					C77.3,34,79.5,35,82,35c5.2,0,9.5-4.2,9.5-9.5C91.4,20.3,87.2,16.1,82,16.1z M82,32.9c-4.1,0-7.4-3.3-7.4-7.4
					c0-4.1,3.3-7.4,7.4-7.4c4.1,0,7.4,3.3,7.4,7.4C89.3,29.6,86,32.9,82,32.9z"/>
				<path class="st0" d="M81.1,23.5c-0.2-0.1-0.5,0-0.5,0.3v3.4c0,0.3,0.3,0.4,0.5,0.3l2.9-1.7c0.2-0.1,0.2-0.4,0-0.6L81.1,23.5z"/>
			</g>
		</g>
	</g>
</g>
</svg>
