<?xml version="1.0" encoding="utf-8"?>
<!-- Generator: Adobe Illustrator 25.2.2, SVG Export Plug-In . SVG Version: 6.00 Build 0)  -->
<svg version="1.1" id="Layer_1" xmlns="http://www.w3.org/2000/svg" xmlns:xlink="http://www.w3.org/1999/xlink" x="0px" y="0px"
	 viewBox="0 0 841.9 595.3" style="enable-background:new 0 0 841.9 595.3;" xml:space="preserve">
<style type="text/css">
	.st0{clip-path:url(#SVGID_2_);fill:#104B85;}
	.st1{fill-rule:evenodd;clip-rule:evenodd;fill:#104B85;}
	.st2{clip-path:url(#SVGID_4_);fill:#104B85;}
</style>
<g>
	<defs>
		<path id="SVGID_1_" d="M445.8,328.2h-3.3c-3.5,0-6.4-2.9-6.4-6.4v-85.2c0-3.5,2.9-6.4,6.4-6.4h3.3c3.5,0,6.4,2.9,6.4,6.4v85.2
			C452.1,325.3,449.3,328.2,445.8,328.2 M381.4,328.2L371,338.6c-3.9,3.9-8.6,5.8-14.1,5.6l-13.6-0.4l16.5-16.1
			c-17.8-3-31.1-18.5-31.1-36.9c0-20.7,16.7-37.4,37.4-37.4c20.7,0,37.4,16.7,37.4,37.4c0,7.7-2.3,15.1-6.6,21.3
			c9.2-1.8,16.2-9.4,17.2-18.7v-56.8c0-3.5,2.9-6.4,6.4-6.4h3.3c3.5,0,6.4,2.9,6.4,6.4v56.1l0,0.1c-0.7,15.7-11.1,29-25.6,33.8
			c-3.3,1.1-6.4,1.6-9.9,1.6L381.4,328.2z M246.5,312.3h36.6c11.9,0,21.5-9.6,21.5-21.5c0-11.9-9.6-21.5-21.5-21.5H268
			c-11.9,0-21.5,9.6-21.5,21.5L246.5,312.3z M366.2,269.1c12,0,21.7,9.7,21.7,21.7c0,12-9.7,21.7-21.7,21.7
			c-12,0-21.7-9.7-21.7-21.7C344.4,278.8,354.1,269.1,366.2,269.1z M229.7,312.3v-75.9c0-3.5,2.9-6.4,6.4-6.4h4.1
			c3.5,0,6.4,2.9,6.4,6.4v23.8c5.6-4,12.2-6.3,19.2-6.7v-0.1c5.8,0,11.6,0,17.5,0c20.7,0,37.4,16.7,37.4,37.4
			c0,20.7-16.7,37.4-37.4,37.4H125.9c-20.7,0-37.4-16.7-37.4-37.4c0-18.9,14.1-34.6,32.3-37.1v-0.1h35v49.1c0,3.3-2.7,6-6,6H145
			c-3.3,0-6-2.7-6-6v-33.4h-13c-11.9,0-21.5,9.6-21.5,21.5c0,11.9,9.6,21.5,21.5,21.5h6.1h6.9h16.8h6.9h6.9V260
			c0-3.5,2.9-6.4,6.4-6.4h4.1c3.5,0,6.4,2.9,6.4,6.4v52.3h12.8V260c0-3.5,2.9-6.4,6.4-6.4h4.1c3.5,0,6.4,2.9,6.4,6.4v52.3H229.7z"/>
	</defs>
	<use xlink:href="#SVGID_1_"  style="overflow:visible;fill-rule:evenodd;clip-rule:evenodd;fill:#104B85;"/>
	<clipPath id="SVGID_2_">
		<use xlink:href="#SVGID_1_"  style="overflow:visible;"/>
	</clipPath>
	<rect x="88.5" y="230" class="st0" width="363.6" height="114.3"/>
</g>
<path class="st1" d="M145.3,230.1h4.1c3.5,0,6.4,2.9,6.4,6.4v4.1c0,3.5-2.9,6.4-6.4,6.4h-4.1c-3.5,0-6.4-2.9-6.4-6.4v-4.1
	C138.9,232.9,141.8,230.1,145.3,230.1"/>
<path class="st1" d="M205.9,230.1h4.1c3.5,0,6.4,2.9,6.4,6.4v4.1c0,3.5-2.9,6.4-6.4,6.4h-4.1c-3.5,0-6.4-2.9-6.4-6.4v-4.1
	C199.5,232.9,202.4,230.1,205.9,230.1"/>
<path class="st1" d="M122.9,230.1h4.1c3.5,0,6.4,2.9,6.4,6.4v4.1c0,3.5-2.9,6.4-6.4,6.4h-4.1c-3.5,0-6.4-2.9-6.4-6.4v-4.1
	C116.5,232.9,119.4,230.1,122.9,230.1"/>
<path class="st1" d="M187.3,334h4.1c3.5,0,6.4,2.9,6.4,6.4v4.1c0,3.5-2.9,6.4-6.4,6.4h-4.1c-3.5,0-6.4-2.9-6.4-6.4v-4.1
	C180.9,336.9,183.8,334,187.3,334"/>
<path class="st1" d="M164.8,334h4.1c3.5,0,6.4,2.9,6.4,6.4v4.1c0,3.5-2.9,6.4-6.4,6.4h-4.1c-3.5,0-6.4-2.9-6.4-6.4v-4.1
	C158.5,336.9,161.3,334,164.8,334"/>
<path class="st1" d="M269.3,240h5.2l-2.7-6.7L269.3,240z M275.1,241.6h-6.4l-1.2,3.2c-0.2,0.5-0.3,0.8-0.5,0.9
	c-0.1,0.2-0.3,0.2-0.6,0.2c-0.2,0-0.5-0.1-0.6-0.3c-0.2-0.2-0.3-0.4-0.3-0.6c0-0.2,0.1-0.5,0.3-1l4.5-11.3c0.3-0.7,0.5-1.1,0.7-1.3
	c0.2-0.2,0.5-0.4,0.9-0.4c0.4,0,0.7,0.1,0.9,0.3c0.2,0.2,0.4,0.7,0.7,1.4l4.7,11.2c0.2,0.5,0.3,0.8,0.3,1c0,0.2-0.1,0.4-0.3,0.6
	c-0.2,0.2-0.4,0.3-0.7,0.3c-0.3,0-0.5-0.1-0.6-0.2c-0.1-0.2-0.3-0.5-0.5-1L275.1,241.6z M282.5,244.2h6.1c0.6,0,0.9,0.1,1.1,0.2
	c0.2,0.1,0.2,0.3,0.2,0.6c0,0.2-0.1,0.4-0.2,0.6c-0.1,0.1-0.5,0.2-1.1,0.2h-6.4c-0.7,0-1.2-0.1-1.4-0.3c-0.2-0.2-0.3-0.6-0.3-1.3
	v-11.4c0-0.4,0-0.7,0.1-0.9c0-0.2,0.1-0.3,0.3-0.5c0.2-0.1,0.4-0.2,0.6-0.2c0.3,0,0.6,0.1,0.8,0.3c0.2,0.2,0.2,0.6,0.2,1.3V244.2z
	 M302.5,243l2.6-10.5c0.1-0.6,0.3-0.9,0.4-1.1c0.2-0.2,0.4-0.2,0.6-0.2c0.3,0,0.5,0.1,0.7,0.3c0.2,0.2,0.3,0.4,0.3,0.6
	c0,0.2-0.1,0.5-0.2,0.9l-3,11.5c-0.2,0.7-0.4,1.2-0.6,1.4c-0.2,0.2-0.4,0.2-0.7,0.2c-0.3,0-0.6-0.1-0.8-0.3
	c-0.2-0.2-0.4-0.6-0.6-1.3l-2.9-10.8l-2.9,10.8c-0.2,0.7-0.4,1.2-0.6,1.3c-0.2,0.2-0.4,0.2-0.7,0.2c-0.4,0-0.7-0.1-0.8-0.4
	c-0.2-0.2-0.3-0.7-0.5-1.3l-3-11.5c-0.1-0.5-0.2-0.8-0.2-0.9c0-0.2,0.1-0.4,0.3-0.6c0.2-0.2,0.4-0.3,0.6-0.3c0.3,0,0.6,0.1,0.7,0.3
	c0.1,0.2,0.2,0.5,0.4,1l2.6,10.5l2.7-10.1c0.2-0.7,0.4-1.1,0.6-1.3c0.2-0.2,0.5-0.2,0.8-0.2c0.5,0,0.9,0.1,1,0.3
	c0.2,0.2,0.3,0.6,0.5,1.2L302.5,243z M311.4,240h5.2l-2.7-6.7L311.4,240z M317.2,241.6h-6.4l-1.2,3.2c-0.2,0.5-0.3,0.8-0.5,0.9
	c-0.1,0.2-0.3,0.2-0.6,0.2c-0.2,0-0.5-0.1-0.6-0.3c-0.2-0.2-0.3-0.4-0.3-0.6c0-0.2,0.1-0.5,0.3-1l4.5-11.3c0.3-0.7,0.5-1.1,0.7-1.3
	c0.2-0.2,0.5-0.4,0.9-0.4c0.4,0,0.7,0.1,0.9,0.3c0.2,0.2,0.4,0.7,0.7,1.4l4.7,11.2c0.2,0.5,0.3,0.8,0.3,1c0,0.2-0.1,0.4-0.3,0.6
	c-0.2,0.2-0.4,0.3-0.7,0.3c-0.3,0-0.5-0.1-0.6-0.2c-0.1-0.2-0.3-0.5-0.5-1L317.2,241.6z M326.4,232.9v11.4c0,0.6-0.1,1.1-0.2,1.3
	c-0.2,0.2-0.4,0.3-0.7,0.3c-0.2,0-0.4-0.1-0.6-0.2c-0.2-0.1-0.3-0.3-0.3-0.5c0-0.2-0.1-0.5-0.1-0.9v-11.4h-3.2
	c-0.6,0-0.9-0.1-1.1-0.2c-0.2-0.1-0.3-0.3-0.3-0.6c0-0.3,0.1-0.5,0.3-0.6c0.2-0.1,0.6-0.2,1.1-0.2h8.4c0.6,0,0.9,0.1,1.1,0.2
	c0.2,0.1,0.3,0.3,0.3,0.6c0,0.2-0.1,0.4-0.3,0.6c-0.2,0.1-0.6,0.2-1.1,0.2H326.4z M333.8,240h5.2l-2.7-6.7L333.8,240z M339.6,241.6
	h-6.4l-1.2,3.2c-0.2,0.5-0.3,0.8-0.5,0.9c-0.1,0.2-0.3,0.2-0.6,0.2c-0.2,0-0.5-0.1-0.6-0.3c-0.2-0.2-0.3-0.4-0.3-0.6
	c0-0.2,0.1-0.5,0.3-1l4.5-11.3c0.3-0.7,0.5-1.1,0.7-1.3c0.2-0.2,0.5-0.4,0.9-0.4c0.4,0,0.7,0.1,0.9,0.3c0.2,0.2,0.4,0.7,0.7,1.4
	l4.7,11.2c0.2,0.5,0.3,0.8,0.3,1c0,0.2-0.1,0.4-0.3,0.6c-0.2,0.2-0.4,0.3-0.7,0.3c-0.3,0-0.5-0.1-0.6-0.2c-0.1-0.2-0.3-0.5-0.5-1
	L339.6,241.6z M354.6,242.9l-0.1-10.2c0-0.6,0.1-1,0.2-1.2c0.2-0.2,0.4-0.3,0.7-0.3c0.3,0,0.6,0.1,0.7,0.3c0.1,0.2,0.2,0.6,0.2,1.2
	V244c0,0.6,0,1-0.1,1.2c-0.1,0.2-0.2,0.4-0.4,0.5c-0.2,0.2-0.4,0.2-0.7,0.2c-0.3,0-0.5-0.1-0.7-0.2c-0.2-0.2-0.4-0.5-0.7-0.9
	l-7-10.4l0.1,10c0,0.5,0,0.8-0.1,0.9c0,0.2-0.1,0.3-0.3,0.4c-0.2,0.1-0.3,0.2-0.6,0.2c-0.2,0-0.4-0.1-0.6-0.2
	c-0.2-0.1-0.3-0.3-0.3-0.4c0-0.2-0.1-0.5-0.1-0.9V233c0-0.6,0-1,0.1-1.2c0.1-0.2,0.2-0.3,0.4-0.5c0.2-0.1,0.4-0.2,0.7-0.2
	c0.3,0,0.5,0.1,0.6,0.2c0.1,0.1,0.4,0.4,0.7,0.9L354.6,242.9z M361.8,232.7v11.6c0,0.5,0,0.8-0.1,0.9c0,0.2-0.1,0.3-0.3,0.4
	c-0.2,0.1-0.4,0.2-0.6,0.2c-0.4,0-0.6-0.1-0.8-0.3c-0.1-0.2-0.2-0.6-0.2-1.3v-11.6c0-0.6,0.1-1.1,0.2-1.3c0.2-0.2,0.4-0.3,0.7-0.3
	c0.2,0,0.4,0.1,0.6,0.2c0.2,0.1,0.3,0.3,0.3,0.5C361.8,232,361.8,232.3,361.8,232.7z M368,240h5.2l-2.7-6.7L368,240z M373.8,241.6
	h-6.4l-1.2,3.2c-0.2,0.5-0.3,0.8-0.5,0.9c-0.1,0.2-0.3,0.2-0.6,0.2c-0.2,0-0.5-0.1-0.6-0.3c-0.2-0.2-0.3-0.4-0.3-0.6
	c0-0.2,0.1-0.5,0.3-1l4.5-11.3c0.3-0.7,0.5-1.1,0.7-1.3c0.2-0.2,0.5-0.4,0.9-0.4c0.4,0,0.7,0.1,0.9,0.3c0.2,0.2,0.4,0.7,0.7,1.4
	l4.7,11.2c0.2,0.5,0.3,0.8,0.3,1c0,0.2-0.1,0.4-0.3,0.6c-0.2,0.2-0.4,0.3-0.7,0.3c-0.3,0-0.5-0.1-0.6-0.2c-0.1-0.2-0.3-0.5-0.5-1
	L373.8,241.6z M390,232.9v11.4c0,0.6-0.1,1.1-0.2,1.3c-0.2,0.2-0.4,0.3-0.7,0.3c-0.2,0-0.4-0.1-0.6-0.2c-0.2-0.1-0.3-0.3-0.3-0.5
	c0-0.2-0.1-0.5-0.1-0.9v-11.4h-3.2c-0.6,0-0.9-0.1-1.1-0.2c-0.2-0.1-0.3-0.3-0.3-0.6c0-0.3,0.1-0.5,0.3-0.6c0.2-0.1,0.6-0.2,1.1-0.2
	h8.4c0.6,0,0.9,0.1,1.1,0.2c0.2,0.1,0.3,0.3,0.3,0.6c0,0.2-0.1,0.4-0.3,0.6c-0.2,0.1-0.6,0.2-1.1,0.2H390z M401.2,243.7l4-11.3
	c0.2-0.5,0.3-0.9,0.5-1c0.1-0.1,0.3-0.2,0.6-0.2c0.2,0,0.5,0.1,0.6,0.3c0.2,0.2,0.3,0.4,0.3,0.6c0,0.2-0.1,0.5-0.3,1l-4.2,11.4
	c-0.3,0.8-0.6,1.3-0.8,1.4c-0.2,0.2-0.5,0.2-0.8,0.2c-0.4,0-0.7-0.1-0.9-0.4c-0.2-0.2-0.4-0.7-0.6-1.3l-4.1-11.3
	c-0.2-0.5-0.3-0.8-0.3-1c0-0.2,0.1-0.4,0.3-0.6c0.2-0.2,0.4-0.3,0.7-0.3c0.2,0,0.4,0.1,0.6,0.2c0.2,0.1,0.3,0.5,0.6,1.1L401.2,243.7
	z"/>
<g>
	<defs>
		<path id="SVGID_3_" d="M630.1,161.8c63.8,0,115.5,51.7,115.5,115.5c0,63.8-51.7,115.5-115.5,115.5c-63.8,0-115.5-51.7-115.5-115.5
			C514.6,213.5,566.3,161.8,630.1,161.8 M643.1,194.9c45.5,0,82.4,36.9,82.4,82.4c0,45.5-36.9,82.4-82.4,82.4
			c-45.5,0-82.4-36.9-82.4-82.4C560.8,231.8,597.6,194.9,643.1,194.9z M643.1,181.8c52.7,0,95.4,42.7,95.4,95.4
			s-42.7,95.4-95.4,95.4c-52.7,0-95.4-42.7-95.4-95.4S590.4,181.8,643.1,181.8z M674.2,242.6l12.9,18.1l21.2-6.7
			c1.6-0.5,3.4,0,4.4,1.5c1,1.4,1,3.2,0,4.6l-13.3,17.9l13,18.1c1,1.4,1,3.2,0,4.6c-1,1.4-2.8,1.9-4.4,1.4l-21.1-7.1l-13.2,17.9
			c-1,1.4-2.8,1.9-4.4,1.4c-1.6-0.5-2.7-2-2.7-3.8l0.2-22.2l-21.1-7c-1.6-0.5-2.7-2-2.7-3.8c0-1.7,1.1-3.2,2.7-3.7l21.2-6.7
			l0.1-22.2c0-1.7,1.1-3.2,2.7-3.7C671.5,240.6,673.2,241.2,674.2,242.6z M630.1,143.5c73.9,0,133.8,59.9,133.8,133.8
			c0,73.9-59.9,133.8-133.8,133.8c-73.9,0-133.8-59.9-133.8-133.8C496.3,203.4,556.2,143.5,630.1,143.5z"/>
	</defs>
	<use xlink:href="#SVGID_3_"  style="overflow:visible;fill-rule:evenodd;clip-rule:evenodd;fill:#104B85;"/>
	<clipPath id="SVGID_4_">
		<use xlink:href="#SVGID_3_"  style="overflow:visible;"/>
	</clipPath>
	<rect x="496.3" y="143.5" class="st2" width="267.6" height="267.6"/>
</g>
</svg>
